<svg xmlns="http://www.w3.org/2000/svg" viewBox="0 0 400 200" role="img" aria-label="Three-row SUV silhouette">
<defs>
  <linearGradient id="bgsuv3row" x1="0" y1="0" x2="0" y2="1">
    <stop offset="0%" stop-color="#F7FAFC"/>
    <stop offset="100%" stop-color="#E8EEF5"/>
  </linearGradient>
  <linearGradient id="bdsuv3row" x1="0" y1="0" x2="0" y2="1">
    <stop offset="0%" stop-color="#475569"/>
    <stop offset="100%" stop-color="#1E293B"/>
  </linearGradient>
  <linearGradient id="glsuv3row" x1="0" y1="0" x2="0" y2="1">
    <stop offset="0%" stop-color="#BFDBFE" stop-opacity=".95"/>
    <stop offset="100%" stop-color="#64748B" stop-opacity=".55"/>
  </linearGradient>
  <radialGradient id="shsuv3row" cx="50%" cy="50%" r="50%">
    <stop offset="0%" stop-color="#0F172A" stop-opacity=".18"/>
    <stop offset="100%" stop-color="#0F172A" stop-opacity="0"/>
  </radialGradient>
</defs>
<rect width="400" height="200" rx="18" fill="url(#bgsuv3row)"/>
<ellipse cx="200" cy="168" rx="132" ry="10" fill="url(#shsuv3row)"/>

<path d="M48 142 L66 116 L98 102 L128 74 L300 74 L336 102 L360 112 L372 142 Z" fill="url(#bdsuv3row)"/>
<path d="M134 76 L156 102 L288 102 L310 76 Z" fill="url(#glsuv3row)"/>
<rect x="190" y="76" width="3" height="26" fill="#0F172A" opacity=".4"/>
<rect x="236" y="76" width="3" height="26" fill="#0F172A" opacity=".4"/>
<circle cx="112" cy="142" r="24" fill="#0F172A"/>
<circle cx="112" cy="142" r="17" fill="#334155"/>
<circle cx="112" cy="142" r="4" fill="#94A3B8"/>
<circle cx="318" cy="142" r="24" fill="#0F172A"/>
<circle cx="318" cy="142" r="17" fill="#334155"/>
<circle cx="318" cy="142" r="4" fill="#94A3B8"/>


</svg>
