<svg xmlns="http://www.w3.org/2000/svg" viewBox="0 0 400 200" role="img" aria-label="Premium ATV UTV visual">
<defs>
<radialGradient id="bg" cx="50%" cy="62%" r="72%"><stop offset="0%" stop-color="#0c1e3a"/><stop offset="100%" stop-color="#010408"/></radialGradient>
<linearGradient id="bd" x1="0" y1="0" x2="0" y2="1"><stop offset="0%" stop-color="#1c3c6a"/><stop offset="45%" stop-color="#0d2040"/><stop offset="100%" stop-color="#060f1e"/></linearGradient>
<linearGradient id="eng" x1="0" y1="0" x2="0" y2="1"><stop offset="0%" stop-color="#182e50"/><stop offset="100%" stop-color="#06101e"/></linearGradient>
<radialGradient id="wh" cx="38%" cy="32%" r="68%"><stop offset="0%" stop-color="#1e3058"/><stop offset="100%" stop-color="#040c1e"/></radialGradient>
<radialGradient id="sh" cx="50%" cy="50%" r="50%"><stop offset="0%" stop-color="#000c20" stop-opacity=".88"/><stop offset="100%" stop-color="#000" stop-opacity="0"/></radialGradient>
</defs>
<rect width="400" height="200" fill="url(#bg)"/>
<ellipse cx="205" cy="184" rx="160" ry="9" fill="url(#sh)"/>
<!-- rear wheel (wide, knobby) -->
<circle cx="108" cy="150" r="38" fill="url(#wh)"/>
<circle cx="108" cy="150" r="28" fill="none" stroke="#18304e" stroke-width="1.5"/>
<!-- knobby tread pattern -->
<path d="M88,118 L98,110" stroke="#4da3ff" stroke-width="1" opacity=".28"/>
<path d="M78,132 L68,126" stroke="#4da3ff" stroke-width="1" opacity=".28"/>
<path d="M76,150 L66,150" stroke="#4da3ff" stroke-width="1" opacity=".28"/>
<path d="M78,168 L68,174" stroke="#4da3ff" stroke-width="1" opacity=".28"/>
<path d="M88,180 L98,190" stroke="#4da3ff" stroke-width="1" opacity=".28"/>
<path d="M128,184 L128,190" stroke="#4da3ff" stroke-width="1" opacity=".28"/>
<path d="M142,176 L148,184" stroke="#4da3ff" stroke-width="1" opacity=".28"/>
<path d="M148,114 L138,108" stroke="#4da3ff" stroke-width="1" opacity=".28"/>
<!-- rear spokes -->
<line x1="108" y1="119" x2="108" y2="181" stroke="#4da3ff" stroke-width="1.2" opacity=".5"/>
<line x1="77" y1="150" x2="139" y2="150" stroke="#4da3ff" stroke-width="1.2" opacity=".5"/>
<line x1="86" y1="128" x2="130" y2="172" stroke="#4da3ff" stroke-width="1" opacity=".4"/>
<line x1="130" y1="128" x2="86" y2="172" stroke="#4da3ff" stroke-width="1" opacity=".4"/>
<circle cx="108" cy="150" r="9" fill="#060e20" stroke="#4da3ff" stroke-width="1.2"/>
<circle cx="108" cy="150" r="3" fill="#4da3ff" opacity=".7"/>
<!-- front wheel (wide, knobby) -->
<circle cx="298" cy="150" r="38" fill="url(#wh)"/>
<circle cx="298" cy="150" r="28" fill="none" stroke="#18304e" stroke-width="1.5"/>
<path d="M278,118 L288,110" stroke="#4da3ff" stroke-width="1" opacity=".28"/>
<path d="M268,132 L258,126" stroke="#4da3ff" stroke-width="1" opacity=".28"/>
<path d="M266,150 L256,150" stroke="#4da3ff" stroke-width="1" opacity=".28"/>
<path d="M268,168 L258,174" stroke="#4da3ff" stroke-width="1" opacity=".28"/>
<path d="M278,180 L288,190" stroke="#4da3ff" stroke-width="1" opacity=".28"/>
<path d="M318,184 L318,190" stroke="#4da3ff" stroke-width="1" opacity=".28"/>
<path d="M332,176 L338,184" stroke="#4da3ff" stroke-width="1" opacity=".28"/>
<path d="M338,114 L328,108" stroke="#4da3ff" stroke-width="1" opacity=".28"/>
<line x1="298" y1="119" x2="298" y2="181" stroke="#4da3ff" stroke-width="1.2" opacity=".5"/>
<line x1="267" y1="150" x2="329" y2="150" stroke="#4da3ff" stroke-width="1.2" opacity=".5"/>
<line x1="276" y1="128" x2="320" y2="172" stroke="#4da3ff" stroke-width="1" opacity=".4"/>
<line x1="320" y1="128" x2="276" y2="172" stroke="#4da3ff" stroke-width="1" opacity=".4"/>
<circle cx="298" cy="150" r="9" fill="#060e20" stroke="#4da3ff" stroke-width="1.2"/>
<circle cx="298" cy="150" r="3" fill="#4da3ff" opacity=".7"/>
<!-- main chassis / frame -->
<path d="M148,134 L180,116 L224,108 L268,116 L300,134 L296,148 L148,148Z" fill="#0e2040" stroke="#4da3ff" stroke-width=".8" opacity=".4"/>
<!-- engine cover (center) -->
<path d="M180,116 Q224,106 268,116 L268,140 Q224,132 180,140Z" fill="url(#eng)" stroke="#4da3ff" stroke-width=".8" opacity=".5"/>
<!-- engine cooling fins -->
<line x1="196" y1="116" x2="194" y2="140" stroke="#4da3ff" stroke-width=".6" opacity=".22"/>
<line x1="212" y1="112" x2="210" y2="138" stroke="#4da3ff" stroke-width=".6" opacity=".22"/>
<line x1="228" y1="110" x2="226" y2="136" stroke="#4da3ff" stroke-width=".6" opacity=".22"/>
<line x1="244" y1="112" x2="242" y2="138" stroke="#4da3ff" stroke-width=".6" opacity=".22"/>
<!-- front fender (right) -->
<path d="M268,116 L300,120 L318,112 Q310,102 294,112 L280,108Z" fill="url(#bd)" stroke="#4da3ff" stroke-width=".8" opacity=".5"/>
<!-- rear fender (left) -->
<path d="M180,116 L148,120 L130,112 Q138,102 154,112 L168,108Z" fill="url(#bd)" stroke="#4da3ff" stroke-width=".8" opacity=".5"/>
<!-- seat -->
<path d="M184,108 Q224,100 264,108 L266,120 Q224,114 182,120Z" fill="#060e1e" stroke="#4da3ff" stroke-width=".8" opacity=".5"/>
<!-- seat stitching -->
<path d="M186,112 Q224,104 262,112" fill="none" stroke="#4da3ff" stroke-width=".6" opacity=".22" stroke-dasharray="4,5"/>
<!-- handlebar stem -->
<rect x="218" y="76" width="12" height="36" rx="3" fill="#0e2848" stroke="#4da3ff" stroke-width=".8" opacity=".6"/>
<!-- handlebars -->
<path d="M192,82 Q212,76 228,78 Q244,76 264,82" fill="none" stroke="#4da3ff" stroke-width="3.5" stroke-linecap="round" opacity=".7"/>
<line x1="192" y1="82" x2="182" y2="94" stroke="#4da3ff" stroke-width="3" stroke-linecap="round" opacity=".6"/>
<line x1="264" y1="82" x2="274" y2="94" stroke="#4da3ff" stroke-width="3" stroke-linecap="round" opacity=".6"/>
<!-- headlight (front center) -->
<rect x="302" y="102" width="22" height="18" rx="4" fill="#cceeff" fill-opacity=".4" stroke="#4da3ff" stroke-width=".8"/>
<rect x="306" y="106" width="14" height="10" rx="2" fill="white" fill-opacity=".55"/>
<line x1="302" y1="102" x2="324" y2="102" stroke="#a0d8ff" stroke-width="2" opacity=".85" stroke-linecap="round"/>
<!-- taillight -->
<rect x="82" y="102" width="16" height="12" rx="3" fill="#c01830" fill-opacity=".7" stroke="#ff3f52" stroke-width=".8"/>
<!-- exhaust -->
<path d="M158,138 Q144,144 132,148 Q120,150 114,148" fill="none" stroke="#4da3ff" stroke-width="2.5" opacity=".3" stroke-linecap="round"/>
<!-- foot pegs -->
<line x1="148" y1="142" x2="132" y2="146" stroke="#4da3ff" stroke-width="2" opacity=".4" stroke-linecap="round"/>
<line x1="300" y1="142" x2="316" y2="146" stroke="#4da3ff" stroke-width="2" opacity=".4" stroke-linecap="round"/>
<!-- skid plate -->
<path d="M164,146 L284,146 L288,150 L160,150Z" fill="#0a1a30" stroke="#4da3ff" stroke-width=".7" opacity=".4"/>
</svg>
